# xmcd
#
# Track frame offsets:
#	150
#	28796
#	48243
#	76459
#	109810
#	136810
#	155148
#	181183
#	202687
#	223584
#
# Disc length: 3270 seconds
# Revision: 0
# Processed by: cddbd v1.5.2PL0 Copyright (c) Steve Scherf et al.
# Submitted via: dBpowerAMP V12.0
#
DISCID=810cc40a
DTITLE=JR Clark - Icicles On My Ceiling
DYEAR=2012
DGENRE=Blues-Rock
TTITLE0=Icicles On My Ceiling
TTITLE1=I Need Some Love
TTITLE2=Tribute to the Boogie
TTITLE3=The Day You Walked Out On Me
TTITLE4=I Can't Have It
TTITLE5=Married Woman Creepin'
TTITLE6=Sunday Morning
TTITLE7=Where Have You Gone With My Love
TTITLE8=How Many More Times
TTITLE9=One Eyed Woman
EXTD=
EXTT0=
EXTT1=
EXTT2=
EXTT3=
EXTT4=
EXTT5=
EXTT6=
EXTT7=
EXTT8=
EXTT9=
PLAYORDER=
